<mxfile host="app.diagrams.net" agent="Mozilla/5.0 (Windows NT 10.0; Win64; x64; rv:132.0) Gecko/20100101 Firefox/132.0" version="24.8.6">
  <diagram name="Page-1" id="e7e014a7-5840-1c2e-5031-d8a46d1fe8dd">
    <mxGraphModel dx="954" dy="579" grid="1" gridSize="10" guides="1" tooltips="1" connect="1" arrows="1" fold="1" page="1" pageScale="1" pageWidth="1169" pageHeight="826" background="none" math="0" shadow="0">
      <root>
        <mxCell id="0" />
        <mxCell id="1" parent="0" />
        <mxCell id="2" value="User" style="swimlane;whiteSpace=wrap;strokeColor=#000000;" parent="1" vertex="1">
          <mxGeometry x="305" y="128" width="280" height="570" as="geometry" />
        </mxCell>
        <mxCell id="5" value="" style="ellipse;shape=startState;fillColor=#000000;strokeColor=#000000;" parent="2" vertex="1">
          <mxGeometry x="125" y="40" width="30" height="30" as="geometry" />
        </mxCell>
        <mxCell id="Jp5dhB9sUlVgiKUQJQng-55" value="Access login page" style="rounded=1;whiteSpace=wrap;html=1;arcSize=40;fontColor=#000000;fillColor=#FFFFFF;strokeColor=#000000;shadow=0;" parent="2" vertex="1">
          <mxGeometry x="80" y="122" width="120" height="40" as="geometry" />
        </mxCell>
        <mxCell id="Jp5dhB9sUlVgiKUQJQng-56" value="" style="endArrow=classic;html=1;rounded=0;exitX=0.5;exitY=1;exitDx=0;exitDy=0;entryX=0.5;entryY=0;entryDx=0;entryDy=0;" parent="2" source="5" target="Jp5dhB9sUlVgiKUQJQng-55" edge="1">
          <mxGeometry width="50" height="50" relative="1" as="geometry">
            <mxPoint x="-160" y="152" as="sourcePoint" />
            <mxPoint x="-204.5" y="124" as="targetPoint" />
          </mxGeometry>
        </mxCell>
        <mxCell id="Jp5dhB9sUlVgiKUQJQng-53" value="Enter Username,&lt;div&gt;Password, Role&lt;/div&gt;" style="rounded=1;whiteSpace=wrap;html=1;arcSize=40;fontColor=#000000;fillColor=#FFFFFF;strokeColor=#000000;shadow=0;" parent="2" vertex="1">
          <mxGeometry x="80" y="204" width="120" height="40" as="geometry" />
        </mxCell>
        <mxCell id="Jp5dhB9sUlVgiKUQJQng-54" value="" style="endArrow=classic;html=1;rounded=0;entryX=0.5;entryY=0;entryDx=0;entryDy=0;exitX=0.5;exitY=1;exitDx=0;exitDy=0;" parent="2" source="Jp5dhB9sUlVgiKUQJQng-55" target="Jp5dhB9sUlVgiKUQJQng-53" edge="1">
          <mxGeometry width="50" height="50" relative="1" as="geometry">
            <mxPoint x="130" y="172" as="sourcePoint" />
            <mxPoint x="95.5" y="144" as="targetPoint" />
          </mxGeometry>
        </mxCell>
        <mxCell id="4" value="System" style="swimlane;whiteSpace=wrap;strokeColor=#000000;startSize=23;" parent="1" vertex="1">
          <mxGeometry x="585" y="128" width="280" height="570" as="geometry" />
        </mxCell>
        <mxCell id="38" value="" style="ellipse;shape=endState;fillColor=#000000;strokeColor=#000000;" parent="4" vertex="1">
          <mxGeometry x="125" y="500" width="30" height="30" as="geometry" />
        </mxCell>
        <mxCell id="Jp5dhB9sUlVgiKUQJQng-82" value="" style="edgeStyle=orthogonalEdgeStyle;rounded=0;orthogonalLoop=1;jettySize=auto;html=1;" parent="4" source="Jp5dhB9sUlVgiKUQJQng-51" target="Jp5dhB9sUlVgiKUQJQng-57" edge="1">
          <mxGeometry relative="1" as="geometry" />
        </mxCell>
        <mxCell id="Jp5dhB9sUlVgiKUQJQng-51" value="Validate" style="rounded=1;whiteSpace=wrap;html=1;arcSize=40;fontColor=#000000;fillColor=#FFFFFF;strokeColor=#000000;shadow=0;" parent="4" vertex="1">
          <mxGeometry x="80" y="204" width="120" height="40" as="geometry" />
        </mxCell>
        <mxCell id="Jp5dhB9sUlVgiKUQJQng-83" value="" style="edgeStyle=orthogonalEdgeStyle;rounded=0;orthogonalLoop=1;jettySize=auto;html=1;" parent="4" edge="1">
          <mxGeometry relative="1" as="geometry">
            <mxPoint x="139.89" y="384.5" as="sourcePoint" />
            <mxPoint x="139.89" y="499.5" as="targetPoint" />
          </mxGeometry>
        </mxCell>
        <mxCell id="Jp5dhB9sUlVgiKUQJQng-57" value="Valid?" style="strokeWidth=2;html=1;shape=mxgraph.flowchart.decision;whiteSpace=wrap;" parent="4" vertex="1">
          <mxGeometry x="90" y="285" width="100" height="100" as="geometry" />
        </mxCell>
        <mxCell id="invEc1XSoCeT7wdX7iHo-38" value="Validate" style="rounded=1;whiteSpace=wrap;html=1;arcSize=40;fontColor=#000000;fillColor=#FFFFFF;strokeColor=#000000;shadow=0;" parent="4" vertex="1">
          <mxGeometry x="80" y="422" width="120" height="40" as="geometry" />
        </mxCell>
        <mxCell id="invEc1XSoCeT7wdX7iHo-40" style="edgeStyle=orthogonalEdgeStyle;rounded=0;orthogonalLoop=1;jettySize=auto;html=1;exitX=0.5;exitY=1;exitDx=0;exitDy=0;entryX=0.5;entryY=0;entryDx=0;entryDy=0;exitPerimeter=0;" parent="4" source="Jp5dhB9sUlVgiKUQJQng-57" target="invEc1XSoCeT7wdX7iHo-38" edge="1">
          <mxGeometry relative="1" as="geometry" />
        </mxCell>
        <mxCell id="invEc1XSoCeT7wdX7iHo-41" value="Yes" style="edgeLabel;html=1;align=center;verticalAlign=middle;resizable=0;points=[];" parent="invEc1XSoCeT7wdX7iHo-40" vertex="1" connectable="0">
          <mxGeometry x="-0.206" y="-1" relative="1" as="geometry">
            <mxPoint x="1" as="offset" />
          </mxGeometry>
        </mxCell>
        <mxCell id="Jp5dhB9sUlVgiKUQJQng-52" value="" style="endArrow=classic;html=1;rounded=0;exitX=1;exitY=0.5;exitDx=0;exitDy=0;entryX=0;entryY=0.5;entryDx=0;entryDy=0;" parent="1" source="Jp5dhB9sUlVgiKUQJQng-53" target="Jp5dhB9sUlVgiKUQJQng-51" edge="1">
          <mxGeometry width="50" height="50" relative="1" as="geometry">
            <mxPoint x="125" y="260" as="sourcePoint" />
            <mxPoint x="80.5" y="232" as="targetPoint" />
          </mxGeometry>
        </mxCell>
        <mxCell id="Jp5dhB9sUlVgiKUQJQng-81" style="edgeStyle=orthogonalEdgeStyle;rounded=0;orthogonalLoop=1;jettySize=auto;html=1;entryX=0.5;entryY=1;entryDx=0;entryDy=0;" parent="1" source="Jp5dhB9sUlVgiKUQJQng-57" target="Jp5dhB9sUlVgiKUQJQng-53" edge="1">
          <mxGeometry relative="1" as="geometry" />
        </mxCell>
        <mxCell id="Jp5dhB9sUlVgiKUQJQng-85" value="No" style="edgeLabel;html=1;align=center;verticalAlign=middle;resizable=0;points=[];" parent="Jp5dhB9sUlVgiKUQJQng-81" vertex="1" connectable="0">
          <mxGeometry x="-0.8463" y="-1" relative="1" as="geometry">
            <mxPoint as="offset" />
          </mxGeometry>
        </mxCell>
      </root>
    </mxGraphModel>
  </diagram>
</mxfile>
